<svg width="1920" height="632" viewBox="0 0 1920 632" fill="none" xmlns="http://www.w3.org/2000/svg">
<g opacity="0.15" clip-path="url(#clip0_429_1410)">
<path fill-rule="evenodd" clip-rule="evenodd" d="M7.30664 473.393L118.085 503.347L230.71 409.961L347.906 377.364L455.959 265.478L566.737 237.286L679.362 318.338L790.14 362.387L904.611 328.91L1015.39 318.338L1128.01 353.577L1241.76 317.457L1351.42 378.245L1464.04 395.865L1576.67 328.91H1687.44L1800.07 318.338L1912.69 249.62L1913.55 632L7.30664 536.824" fill="url(#paint0_linear_429_1410)" fill-opacity="0.1"/>
<path fill-rule="evenodd" clip-rule="evenodd" d="M566.952 236.208L679.846 317.454L790.187 361.33L902.574 327.923L1015.49 317.324L1128.01 350.771L1241.87 316.377L1351.75 377.285L1463.84 394.821L1576.39 327.91H1689.24L1799.74 317.364L1912.17 248.766L1913.21 250.474L1800.39 319.311L1689.34 329.91H1576.94L1464.24 396.909L1351.09 379.206L1241.64 318.536L1128.02 352.859L1015.29 319.351L902.956 329.896L790.093 363.445L678.878 319.221L566.522 238.364L454.636 264.62L348.445 378.252L231.192 410.865L122.045 504.434L7.08154 477.891L7.53148 475.942L121.51 502.258L230.227 409.057L347.367 376.476L453.589 262.812L566.952 236.208Z" fill="#990505"/>
<path d="M15 477C15 480.25 12.156 483 8.5 483C4.84405 483 2 480.25 2 477C2 473.75 4.84405 471 8.5 471C12.156 471 15 473.75 15 477Z" fill="white" stroke="#990505" stroke-width="2"/>
<path d="M127 503C127 506.314 124.314 509 121 509C117.686 509 115 506.314 115 503C115 499.686 117.686 497 121 497C124.314 497 127 499.686 127 503Z" fill="white" stroke="#990505" stroke-width="2"/>
<path d="M235 411.5C235 415.09 232.09 418 228.5 418C224.91 418 222 415.09 222 411.5C222 407.91 224.91 405 228.5 405C232.09 405 235 407.91 235 411.5Z" fill="white" stroke="#990505" stroke-width="2"/>
<path d="M460 266C460 269.866 456.866 273 453 273C449.134 273 446 269.866 446 266C446 262.134 449.134 259 453 259C456.866 259 460 262.134 460 266Z" fill="white" stroke="#990505" stroke-width="2"/>
<path d="M351 377.5C351 381.09 348.09 384 344.5 384C340.91 384 338 381.09 338 377.5C338 373.91 340.91 371 344.5 371C348.09 371 351 373.91 351 377.5Z" fill="white" stroke="#990505" stroke-width="2"/>
<path d="M571.945 239.048C571.945 242.337 569.112 245.096 565.502 245.096C561.891 245.096 559.059 242.337 559.059 239.048C559.059 235.758 561.891 233 565.502 233C569.112 233 571.945 235.758 571.945 239.048Z" fill="white" stroke="#990505" stroke-width="2"/>
<path d="M684.764 318.338C684.764 321.627 681.932 324.385 678.321 324.385C674.711 324.385 671.878 321.627 671.878 318.338C671.878 315.048 674.711 312.29 678.321 312.29C681.932 312.29 684.764 315.048 684.764 318.338Z" fill="white" stroke="#990505" stroke-width="2"/>
<path d="M797.644 360.625C797.644 363.915 794.811 366.673 791.201 366.673C787.591 366.673 784.758 363.915 784.758 360.625C784.758 357.336 787.591 354.577 791.201 354.577C794.811 354.577 797.644 357.336 797.644 360.625Z" fill="white" stroke="#990505" stroke-width="2"/>
<path d="M910.577 329.361C910.577 332.951 907.667 335.861 904.077 335.861C900.488 335.861 897.577 332.951 897.577 329.361C897.577 325.771 900.488 322.861 904.077 322.861C907.667 322.861 910.577 325.771 910.577 329.361Z" fill="white" stroke="#990505" stroke-width="2"/>
<path d="M1024.38 319.29C1024.38 323.156 1021.24 326.29 1017.38 326.29C1013.51 326.29 1010.38 323.156 1010.38 319.29C1010.38 315.424 1013.51 312.29 1017.38 312.29C1021.24 312.29 1024.38 315.424 1024.38 319.29Z" fill="white" stroke="#990505" stroke-width="2"/>
<path d="M1135 350C1135 353.314 1132.31 356 1129 356C1125.69 356 1123 353.314 1123 350C1123 346.686 1125.69 344 1129 344C1132.31 344 1135 346.686 1135 350Z" fill="white" stroke="#990505" stroke-width="2"/>
<path d="M1248 318C1248 321.314 1245.31 324 1242 324C1238.69 324 1236 321.314 1236 318C1236 314.686 1238.69 312 1242 312C1245.31 312 1248 314.686 1248 318Z" fill="white" stroke="#990505" stroke-width="2"/>
<path d="M1362 379C1362 382.314 1359.31 385 1356 385C1352.69 385 1350 382.314 1350 379C1350 375.686 1352.69 373 1356 373C1359.31 373 1362 375.686 1362 379Z" fill="white" stroke="#990505" stroke-width="2"/>
<path d="M1469 394.5C1469 397.538 1466.54 400 1463.5 400C1460.46 400 1458 397.538 1458 394.5C1458 391.462 1460.46 389 1463.5 389C1466.54 389 1469 391.462 1469 394.5Z" fill="white" stroke="#990505" stroke-width="2"/>
<path d="M1585 329C1585 332.314 1582.31 335 1579 335C1575.69 335 1573 332.314 1573 329C1573 325.686 1575.69 323 1579 323C1582.31 323 1585 325.686 1585 329Z" fill="white" stroke="#990505" stroke-width="2"/>
<path d="M1701 327C1701 330.314 1698.31 333 1695 333C1691.69 333 1689 330.314 1689 327C1689 323.686 1691.69 321 1695 321C1698.31 321 1701 323.686 1701 327Z" fill="white" stroke="#990505" stroke-width="2"/>
<path d="M1811 316C1811 319.866 1807.87 323 1804 323C1800.13 323 1797 319.866 1797 316C1797 312.134 1800.13 309 1804 309C1807.87 309 1811 312.134 1811 316Z" fill="white" stroke="#990505" stroke-width="2"/>
<path d="M1922 247.5C1922 250.538 1919.54 253 1916.5 253C1913.46 253 1911 250.538 1911 247.5C1911 244.462 1913.46 242 1916.5 242C1919.54 242 1922 244.462 1922 247.5Z" fill="white" stroke="#990505" stroke-width="2"/>
</g>
<g opacity="0.15" clip-path="url(#clip1_429_1410)">
<path fill-rule="evenodd" clip-rule="evenodd" d="M5.9585 363.07L116.209 304.747L230.198 339.741L343.252 235.656L453.503 106.447L567.491 135.16L676.808 223.991L790.796 279.623L902.915 220.402L1011.3 197.97L1126.22 92.9878L1238.34 174.641L1352.33 304.747L1462.58 346.022L1577.5 228.029L1686.49 110.933L1797.07 135.16L1911.06 147.722V495H5.9585" fill="url(#paint1_linear_429_1410)" fill-opacity="0.1"/>
<path fill-rule="evenodd" clip-rule="evenodd" d="M1128.13 92.0903L1240.79 174.231L1354.47 304.138L1463.66 345.065L1577.9 227.643L1577.91 227.626L1687.07 110.214L1797.94 134.534L1911.66 147.081L1911.44 149.069L1797.62 136.51L1687.75 112.412L1579.36 229.005L1579.35 229.013L1579.35 229.021L1464.19 347.397L1353.3 305.834L1239.43 175.716L1128.28 94.6698L1013.97 199.21L905.667 221.653L793.437 281.002L679.105 225.137L570.079 136.437L457.125 107.951L347.447 236.64L234.142 341.079L120.211 306.062L9.39208 363.215L8.47534 361.437L120.019 303.91L233.631 338.83L346.003 235.251L456.409 105.708L570.998 134.606L680.189 223.441L793.401 278.758L904.983 219.752L1013.03 197.363L1128.13 92.0903Z" fill="#75ACFE"/>
<path d="M12 361.5C12 365.09 9.08985 368 5.5 368C1.91015 368 -1 365.09 -1 361.5C-1 357.91 1.91015 355 5.5 355C9.08985 355 12 357.91 12 361.5Z" fill="white" stroke="#2B69DD" stroke-width="2"/>
<path d="M125 304.5C125 308.09 122.09 311 118.5 311C114.91 311 112 308.09 112 304.5C112 300.91 114.91 298 118.5 298C122.09 298 125 300.91 125 304.5Z" fill="white" stroke="#2B69DD" stroke-width="2"/>
<path d="M239 338.5C239 342.09 236.09 345 232.5 345C228.91 345 226 342.09 226 338.5C226 334.91 228.91 332 232.5 332C236.09 332 239 334.91 239 338.5Z" fill="white" stroke="#2B69DD" stroke-width="2"/>
<path d="M463 107.5C463 111.09 460.09 114 456.5 114C452.91 114 450 111.09 450 107.5C450 103.91 452.91 101 456.5 101C460.09 101 463 103.91 463 107.5Z" fill="white" stroke="#2B69DD" stroke-width="2"/>
<path d="M349 239.5C349 243.09 346.09 246 342.5 246C338.91 246 336 243.09 336 239.5C336 235.91 338.91 233 342.5 233C346.09 233 349 235.91 349 239.5Z" fill="white" stroke="#2B69DD" stroke-width="2"/>
<path d="M572.908 134.952C572.908 138.542 569.998 141.452 566.408 141.452C562.818 141.452 559.908 138.542 559.908 134.952C559.908 131.362 562.818 128.452 566.408 128.452C569.998 128.452 572.908 131.362 572.908 134.952Z" fill="white" stroke="#2B69DD" stroke-width="2"/>
<path d="M685 221.5C685 225.09 682.09 228 678.5 228C674.91 228 672 225.09 672 221.5C672 217.91 674.91 215 678.5 215C682.09 215 685 217.91 685 221.5Z" fill="white" stroke="#2B69DD" stroke-width="2"/>
<path d="M799 277.5C799 281.09 796.09 284 792.5 284C788.91 284 786 281.09 786 277.5C786 273.91 788.91 271 792.5 271C796.09 271 799 273.91 799 277.5Z" fill="white" stroke="#2B69DD" stroke-width="2"/>
<path d="M911.43 221.029C911.43 224.619 908.52 227.529 904.93 227.529C901.34 227.529 898.43 224.619 898.43 221.029C898.43 217.439 901.34 214.529 904.93 214.529C908.52 214.529 911.43 217.439 911.43 221.029Z" fill="white" stroke="#2B69DD" stroke-width="2"/>
<path d="M1019 197.5C1019 201.09 1016.09 204 1012.5 204C1008.91 204 1006 201.09 1006 197.5C1006 193.91 1008.91 191 1012.5 191C1016.09 191 1019 193.91 1019 197.5Z" fill="white" stroke="#2B69DD" stroke-width="2"/>
<path d="M1135 95.5C1135 99.0899 1132.09 102 1128.5 102C1124.91 102 1122 99.0899 1122 95.5C1122 91.9101 1124.91 89 1128.5 89C1132.09 89 1135 91.9101 1135 95.5Z" fill="white" stroke="#2B69DD" stroke-width="2"/>
<path d="M1249.95 176.197C1249.95 179.787 1247.04 182.697 1243.45 182.697C1239.86 182.697 1236.95 179.787 1236.95 176.197C1236.95 172.607 1239.86 169.697 1243.45 169.697C1247.04 169.697 1249.95 172.607 1249.95 176.197Z" fill="white" stroke="#2B69DD" stroke-width="2"/>
<path d="M1360.91 303.52C1360.91 307.109 1358 310.02 1354.41 310.02C1350.82 310.02 1347.91 307.109 1347.91 303.52C1347.91 299.93 1350.82 297.02 1354.41 297.02C1358 297.02 1360.91 299.93 1360.91 303.52Z" fill="white" stroke="#2B69DD" stroke-width="2"/>
<path d="M1470 344.5C1470 348.09 1467.09 351 1463.5 351C1459.91 351 1457 348.09 1457 344.5C1457 340.91 1459.91 338 1463.5 338C1467.09 338 1470 340.91 1470 344.5Z" fill="white" stroke="#2B69DD" stroke-width="2"/>
<path d="M1587 225.5C1587 229.09 1584.09 232 1580.5 232C1576.91 232 1574 229.09 1574 225.5C1574 221.91 1576.91 219 1580.5 219C1584.09 219 1587 221.91 1587 225.5Z" fill="white" stroke="#2B69DD" stroke-width="2"/>
<path d="M1694 109.5C1694 113.09 1691.09 116 1687.5 116C1683.91 116 1681 113.09 1681 109.5C1681 105.91 1683.91 103 1687.5 103C1691.09 103 1694 105.91 1694 109.5Z" fill="white" stroke="#2B69DD" stroke-width="2"/>
<path d="M1810.39 134.952C1810.39 138.542 1807.48 141.452 1803.89 141.452C1800.3 141.452 1797.39 138.542 1797.39 134.952C1797.39 131.362 1800.3 128.452 1803.89 128.452C1807.48 128.452 1810.39 131.362 1810.39 134.952Z" fill="white" stroke="#2B69DD" stroke-width="2"/>
<path d="M1925.11 149.298C1925.11 152.888 1922.2 155.798 1918.61 155.798C1915.02 155.798 1912.11 152.888 1912.11 149.298C1912.11 145.708 1915.02 142.798 1918.61 142.798C1922.2 142.798 1925.11 145.708 1925.11 149.298Z" fill="white" stroke="#2B69DD" stroke-width="2"/>
</g>
<g opacity="0.6">
<path fill-rule="evenodd" clip-rule="evenodd" d="M1447.56 52.2569C1447.56 80.8331 1424.39 103.998 1395.82 103.998C1367.24 103.998 1344.08 80.8331 1344.08 52.2569C1344.08 23.6807 1367.24 0.515625 1395.82 0.515625C1424.39 0.515625 1447.56 23.6807 1447.56 52.2569" fill="#FFC246"/>
<path fill-rule="evenodd" clip-rule="evenodd" d="M1418.98 45.1912C1420.05 37.924 1414.57 33.9958 1407.05 31.3769L1409.48 21.5563L1403.42 20.0178L1401.02 29.642L1396.29 28.4962L1398.65 18.8393L1392.72 17.3335L1390.29 27.1541L1378.3 24.2079L1376.84 30.624C1376.84 30.624 1381.25 31.6388 1381.15 31.7043C1382.82 31.9565 1384.02 33.4683 1383.9 35.1742L1377.42 62.2136C1377.25 62.7695 1376.87 63.2337 1376.35 63.5039C1375.84 63.7741 1375.25 63.828 1374.7 63.6539L1370.06 62.5409L1367.11 69.4153L1374.86 71.3795L1379.11 72.4925L1376.64 82.313L1382.57 83.7861L1385.01 73.9655L1389.8 75.3404L1387.37 85.161L1393.34 86.6668L1395.8 76.6826C1405.95 78.6467 1413.56 77.861 1416.77 68.597C1419.37 61.1333 1416.77 56.8123 1411.33 54.0298C1415.57 53.1769 1418.71 49.5487 1418.98 45.1912ZM1405.4 64.4396C1403.55 71.9032 1391.1 67.7131 1387.08 66.862L1390.32 53.7679C1394.24 54.6517 1407.18 56.6158 1405.27 64.4396H1405.4ZM1407.21 45.093C1405.56 51.8692 1395.18 48.3665 1391.85 47.5809L1394.67 35.5998C1398.04 36.4509 1408.83 38.0222 1407.08 45.093H1407.21Z" fill="white"/>
</g>
<g opacity="0.6">
<path fill-rule="evenodd" clip-rule="evenodd" d="M511.721 313.861C511.721 329.248 499.248 341.721 483.861 341.721C468.474 341.721 456 329.248 456 313.861C456 298.474 468.474 286 483.861 286C499.248 286 511.721 298.474 511.721 313.861" fill="#5D8BAD"/>
<path fill-rule="evenodd" clip-rule="evenodd" d="M482.759 297.245L482.765 297.244C483.185 297.226 483.733 297.202 484.149 297.2C485.621 297.206 486.389 297.782 486.089 298.912C485.718 300.299 483.825 302.181 481.284 303.867C480.803 304.096 480.307 303.447 480.41 303.172C480.43 303.132 480.459 303.096 480.494 303.068C482.714 301.595 484.366 299.953 484.694 298.741C484.981 297.644 484.118 297.149 482.543 297.263L482.759 297.245ZM482.38 297.277L482.543 297.263C482.489 297.267 482.435 297.271 482.38 297.277ZM492.256 301.071C492.541 300.009 492.185 299.276 491.332 298.88C491.058 298.749 490.719 298.606 490.398 298.471L490.398 298.471L490.398 298.471L490.398 298.471C490.308 298.433 490.219 298.395 490.134 298.359C490.069 298.331 490.001 298.302 489.928 298.275L490.134 298.359C490.941 298.732 491.277 299.422 491.009 300.424C490.212 303.42 484.324 308.068 477.864 310.807C476.74 311.29 475.588 311.706 474.415 312.052C474.313 312.088 474.225 312.155 474.163 312.243C473.904 312.612 474.005 313.508 474.624 313.419C475.871 313.052 477.095 312.611 478.289 312.099C485.156 309.191 491.408 304.255 492.256 301.071ZM498.764 305.96L498.97 306.355C499.097 306.701 499.143 306.827 499.161 306.958C499.171 307.033 499.172 307.109 499.174 307.229C499.171 307.251 499.161 307.272 499.146 307.287C498.959 307.224 498.505 306.363 498.462 305.986C498.465 305.67 498.389 305.358 498.242 305.078L498.764 305.96ZM498.176 304.967L498.242 305.078C498.221 305.04 498.199 305.003 498.176 304.967ZM500.272 309.759C500.369 310.133 500.356 310.569 500.224 311.067C499.384 314.204 494.044 318.804 487.578 322.198C486.855 322.5 486.413 321.954 486.586 321.489C486.656 321.314 486.787 321.17 486.955 321.083C493.529 317.632 498.96 312.956 499.807 309.767C499.949 309.236 499.956 308.775 499.842 308.384L499.901 308.563C500.03 308.954 500.176 309.4 500.272 309.759ZM499.807 308.278L499.842 308.384C499.831 308.348 499.82 308.313 499.807 308.278ZM471.194 303.599C471.178 303.66 471.166 303.721 471.158 303.782C471.123 303.984 471.169 304.19 471.286 304.358C471.805 305.064 473.753 304.902 476.28 303.835C477.076 303.495 477.848 303.104 478.592 302.663C478.753 302.524 478.638 302.31 478.585 302.23C478.531 302.151 478.265 301.848 478.037 301.932C477.445 302.281 476.832 302.591 476.2 302.859C474.192 303.712 472.642 303.841 472.229 303.279C472.118 303.128 472.09 302.928 472.157 302.676C472.259 302.359 472.423 302.065 472.641 301.811C473.018 301.359 473.445 300.951 473.913 300.594C475.098 299.74 476.374 299.02 477.719 298.448C477.887 298.376 478.051 298.315 478.213 298.254L478.214 298.254C478.261 298.236 478.309 298.219 478.357 298.201C480.352 297.548 481.658 297.749 481.387 298.766C481.304 299.081 481.079 299.434 480.743 299.837C480.886 299.984 481.663 300.163 482.004 299.995C482.418 299.521 482.697 299.072 482.802 298.681C483.113 297.513 481.775 297.2 479.632 297.775C479.465 297.82 479.37 297.848 479.253 297.883L479.253 297.883L479.253 297.883L479.253 297.883C479.202 297.899 479.147 297.915 479.079 297.935C478.859 298 478.785 298.024 478.543 298.109C478.3 298.194 478.17 298.242 478.002 298.306C477.833 298.369 477.715 298.418 477.488 298.512L477.451 298.527C477.296 298.593 477.219 298.628 477.098 298.682L477.022 298.716C476.852 298.793 476.781 298.827 476.613 298.909C476.497 298.966 476.432 299 476.35 299.042C476.314 299.061 476.274 299.081 476.226 299.106C476.068 299.187 476.007 299.219 475.848 299.308C475.742 299.367 475.681 299.403 475.607 299.446L475.607 299.446L475.607 299.446L475.607 299.446C475.57 299.468 475.53 299.492 475.479 299.521C475.328 299.608 475.273 299.641 475.113 299.742C475.002 299.812 474.942 299.851 474.863 299.902L474.863 299.902C474.829 299.924 474.791 299.949 474.743 299.98C474.596 300.076 474.537 300.117 474.395 300.216L474.372 300.232C474.236 300.327 474.169 300.377 474.069 300.45L473.98 300.515C473.859 300.604 473.794 300.655 473.694 300.733L473.694 300.733L473.694 300.733L473.694 300.733L473.592 300.812C473.441 300.933 473.366 300.995 473.255 301.087L473.165 301.163C472.996 301.303 472.92 301.367 472.739 301.535C472.401 301.834 472.089 302.161 471.804 302.511C471.601 302.757 471.43 303.028 471.295 303.317C471.254 303.408 471.22 303.503 471.194 303.599ZM469.293 306.271C469.304 306.182 469.322 306.093 469.345 306.007C469.383 305.867 469.432 305.731 469.49 305.599C469.579 305.416 469.713 305.179 469.816 305.004C469.893 304.871 469.994 304.729 470.097 304.583L470.097 304.583L470.097 304.583C470.13 304.535 470.164 304.487 470.198 304.439L470.236 304.384C470.361 304.205 470.488 304.021 470.601 303.869L470.832 303.569L470.836 303.564C470.711 303.726 470.599 303.893 470.487 304.06L470.487 304.06L470.487 304.06L470.487 304.06L470.487 304.06L470.487 304.06L470.487 304.06L470.487 304.06L470.487 304.06L470.487 304.06L470.487 304.06L470.487 304.06L470.435 304.138C470.276 304.385 470.153 304.653 470.068 304.935C469.963 305.332 470.008 305.65 470.184 305.89C470.727 306.63 472.515 306.614 474.928 305.813C475.278 305.763 475.245 306.407 475.244 306.414C475.214 306.765 475.167 307.295 472.098 307.674C471.218 307.781 470.051 307.773 469.494 307.121L469.48 307.103C469.404 306.996 469.35 306.875 469.319 306.747C469.319 306.743 469.317 306.738 469.315 306.734C469.314 306.73 469.312 306.726 469.312 306.722C469.289 306.573 469.282 306.422 469.293 306.271ZM468.07 308.707C468.041 308.817 468.018 308.929 468.004 309.043C467.952 309.463 468.035 309.812 468.238 310.089C469.186 311.38 472.745 311.084 477.365 309.127C483.216 306.647 488.549 302.435 489.273 299.72C489.534 298.741 489.16 298.092 488.248 297.756L488.22 297.748C488.061 297.704 487.892 297.658 487.601 297.597C487.209 297.515 487.19 297.516 487.041 297.526L487.039 297.526C487.824 297.815 488.165 298.41 487.926 299.305C487.265 301.787 482.389 305.638 477.037 307.906C472.819 309.693 469.564 309.967 468.697 308.784C468.465 308.467 468.404 308.044 468.545 307.517C468.578 307.395 468.618 307.275 468.666 307.157C468.696 307.087 468.726 307.019 468.755 306.955C468.722 307.023 468.693 307.091 468.666 307.157C468.517 307.503 468.359 307.909 468.224 308.256L468.224 308.256L468.224 308.257L468.224 308.257L468.154 308.437C468.121 308.528 468.093 308.618 468.07 308.707ZM467.324 311.999L467.459 311.091L467.578 310.487C467.588 310.441 467.599 310.394 467.612 310.346C467.592 310.439 467.578 310.532 467.564 310.626C467.555 310.686 467.546 310.745 467.536 310.804C467.499 311.23 467.587 311.589 467.797 311.875C467.959 312.089 468.169 312.262 468.411 312.379C468.623 312.568 468.511 313.297 468.509 313.303C468.471 313.525 468.396 313.786 468.25 313.764C467.991 313.634 467.769 313.441 467.602 313.204V313.232C467.582 313.206 467.567 313.177 467.551 313.148C467.543 313.132 467.534 313.116 467.525 313.1C467.52 313.093 467.516 313.085 467.511 313.078L467.511 313.078C467.501 313.061 467.491 313.045 467.483 313.028C467.476 313.015 467.47 313.006 467.464 312.997C467.459 312.989 467.454 312.982 467.45 312.973C467.399 312.856 467.363 312.734 467.343 312.608C467.34 312.59 467.338 312.571 467.335 312.552C467.334 312.54 467.333 312.529 467.331 312.517C467.322 312.464 467.315 312.411 467.311 312.357C467.305 312.236 467.31 312.115 467.324 311.995V311.999ZM467.368 315.992C467.374 316.013 467.38 316.034 467.388 316.053V316.049L467.395 316.067L467.395 316.067C467.399 316.078 467.403 316.088 467.407 316.098C467.454 316.212 467.514 316.32 467.586 316.42C467.586 316.413 467.586 316.406 467.586 316.399C468.802 318.095 473.433 317.721 479.453 315.174C487.069 311.943 494.006 306.464 494.945 302.935C495.203 301.97 494.985 301.25 494.379 300.78L493.707 300.276L493.133 299.888C493.431 300.107 493.984 300.514 493.935 301.478C493.661 306.998 472.28 320.153 467.513 315.05C467.322 314.784 467.214 314.468 467.201 314.142C467.201 314.106 467.2 314.072 467.2 314.038C467.2 314.072 467.2 314.107 467.201 314.142C467.206 314.457 467.228 314.829 467.249 315.171L467.249 315.171L467.249 315.171L467.249 315.171C467.254 315.267 467.26 315.361 467.265 315.45V315.467C467.271 315.5 467.271 315.536 467.271 315.568C467.275 315.575 467.275 315.581 467.275 315.589C467.277 315.602 467.28 315.615 467.283 315.629C467.286 315.643 467.29 315.658 467.292 315.673C467.306 315.768 467.327 315.861 467.357 315.953C467.361 315.966 467.365 315.979 467.368 315.992ZM468.255 319.603L468.241 319.585L468.236 319.578L468.23 319.571L468.22 319.557C468.104 319.418 468.022 319.254 467.983 319.078C467.95 318.96 467.915 318.833 467.878 318.701L467.878 318.7L467.878 318.7L467.878 318.7C467.779 318.347 467.672 317.962 467.597 317.641C467.65 317.854 467.743 318.054 467.873 318.232L467.892 318.258C469.204 319.974 474.005 319.565 480.209 316.938C488.126 313.578 495.336 307.885 496.316 304.213C496.538 303.373 496.418 302.718 496.008 302.239L496.16 302.403L496.164 302.407L496.166 302.41L496.167 302.411C496.431 302.693 496.721 303.005 496.942 303.268C497.353 303.756 497.472 304.425 497.246 305.272C496.247 309.017 488.892 314.826 480.817 318.247C474.479 320.935 469.584 321.348 468.252 319.591L468.255 319.603ZM495.902 302.125L496.008 302.239C495.974 302.2 495.939 302.161 495.902 302.125ZM467.583 317.58C467.587 317.601 467.592 317.621 467.597 317.641L467.583 317.58ZM469.291 322.092C469.501 322.546 469.571 322.596 469.571 322.596V322.592C469.67 322.705 469.776 322.812 469.889 322.91C471.569 324.329 476.314 323.806 482.367 321.252C487.226 319.194 491.828 316.284 494.986 313.463L494.986 313.463C495.114 313.284 495.307 313.014 495.143 312.569C495.068 312.365 494.832 311.919 494.282 312.208C491.126 315.025 486.532 317.929 481.682 319.984C475.223 322.719 470.24 323.134 468.913 321.328C469.024 321.569 469.142 321.808 469.267 322.046L469.291 322.092ZM471.13 324.798C470.955 324.591 470.781 324.382 470.64 324.198C470.63 324.187 470.622 324.175 470.613 324.163C470.62 324.172 470.627 324.18 470.634 324.189C470.642 324.197 470.649 324.205 470.655 324.214C471.443 325.207 473.393 325.491 476.116 325.043C476.665 325.013 477.026 325.472 477.093 325.596C477.169 325.741 477.249 325.997 476.915 326.094C474.346 326.514 472.472 326.278 471.642 325.392C471.485 325.214 471.304 325.001 471.13 324.793V324.798ZM473.215 326.891C473.178 326.864 473.142 326.836 473.108 326.807V326.803C473.143 326.832 473.178 326.861 473.215 326.891ZM473.215 326.891C474.792 328.049 478.793 327.641 483.905 325.617C484.676 325.381 484.933 325.895 484.936 325.901L484.936 325.901C484.979 326.004 485.033 326.268 484.6 326.483C479.695 328.425 475.848 328.823 474.305 327.734C474.201 327.653 474.086 327.566 473.968 327.476L473.968 327.476L473.968 327.476L473.967 327.476C473.715 327.283 473.443 327.077 473.215 326.891ZM495.851 325.554C495.744 325.728 495.61 325.885 495.456 326.019C493.854 327.307 491.741 328.582 489.528 329.52C487.662 330.311 486.031 330.732 484.823 330.794C484.391 330.802 483.841 330.803 483.368 330.794C484.76 330.794 486.742 330.316 489.039 329.343C491.547 328.28 493.941 326.835 495.759 325.375C495.803 325.346 495.849 325.321 495.898 325.301L495.934 325.368C495.912 325.431 495.884 325.492 495.851 325.55V325.554ZM483.077 330.787C483.17 330.794 483.268 330.794 483.368 330.794L483.077 330.787ZM480.947 330.526C485.528 331.262 497.034 325.529 499.541 320.406C499.692 320.066 499.838 319.625 499.968 319.232L499.968 319.231L499.971 319.223C499.991 319.162 500.011 319.102 500.03 319.044C500.049 318.991 500.067 318.939 500.083 318.887C500.066 318.938 500.048 318.99 500.03 319.044C499.008 321.86 493.645 326.025 487.778 328.512C484.154 330.047 481.157 330.595 479.491 330.188C479.449 330.177 479.407 330.166 479.367 330.155C479.408 330.167 479.449 330.178 479.491 330.188C479.932 330.302 480.481 330.423 480.91 330.518L480.91 330.518L480.947 330.526ZM500.69 315.946L500.69 315.946C500.653 316.258 500.612 316.592 500.566 316.861C500.551 316.945 500.533 317.023 500.51 317.108C499.688 320.191 493.634 324.972 486.986 327.788C482.664 329.62 479.154 330.17 477.456 329.48C477.388 329.448 477.316 329.415 477.241 329.38L477.24 329.38L477.24 329.38C476.857 329.203 476.411 328.997 476.07 328.818C481.902 331.247 499.901 321.412 500.76 315.326L500.74 315.547C500.724 315.67 500.708 315.806 500.69 315.946ZM494.62 320.935C497.861 318.542 500.184 316.033 500.696 314.112H500.697C500.772 313.845 500.806 313.569 500.799 313.293L500.768 312.752L500.669 311.795C500.702 312.135 500.671 312.479 500.575 312.807C500.045 314.796 497.643 317.395 494.283 319.872C494.111 320.011 493.991 320.204 493.943 320.419C493.864 320.793 494.095 321.257 494.62 320.935Z" fill="white"/>
</g>
<g opacity="0.6">
<path fill-rule="evenodd" clip-rule="evenodd" d="M1454.99 450.752C1438.49 457.086 1419.98 448.845 1413.64 432.345C1407.31 415.846 1415.55 397.336 1432.05 391.003C1448.55 384.669 1467.06 392.91 1473.39 409.41C1479.73 425.909 1471.48 444.419 1454.99 450.752Z" fill="#1786C4"/>
<path fill-rule="evenodd" clip-rule="evenodd" d="M1457.47 394.955L1451.42 397.277L1445.62 410.741C1443.87 414.804 1439.19 416.6 1435.17 414.752L1421.85 408.628L1415.8 410.95L1433.34 419.011C1439.68 421.929 1447.07 419.094 1449.83 412.678L1457.47 394.955ZM1429.49 446.829L1435.54 444.507L1441.38 430.934C1443.13 426.871 1447.81 425.075 1451.83 426.923L1465.26 433.097L1471.31 430.775L1453.67 422.664C1447.32 419.746 1439.93 422.582 1437.17 428.997L1429.49 446.829Z" fill="white"/>
</g>
<g opacity="0.6">
<path fill-rule="evenodd" clip-rule="evenodd" d="M267.266 99.3089C260.466 110.61 245.793 114.258 234.492 107.458C223.191 100.658 219.543 85.9841 226.343 74.6833C233.143 63.3826 247.817 59.7342 259.117 66.5344C270.418 73.3347 274.066 88.0081 267.266 99.3089" fill="#5470DE"/>
<path fill-rule="evenodd" clip-rule="evenodd" d="M236.644 81.1703L243.167 93.2052L256.856 93.3328L256.838 70.487L236.644 81.1703ZM235.465 83.1288L237.039 103.389L255.677 95.2913L242.035 95.0856L235.465 83.1288Z" fill="white"/>
</g>
<defs>
<linearGradient id="paint0_linear_429_1410" x1="134.85" y1="237.286" x2="134.85" y2="579.181" gradientUnits="userSpaceOnUse">
<stop stop-color="#F31818"/>
<stop offset="1" stop-color="#5D7EF7" stop-opacity="0.01"/>
</linearGradient>
<linearGradient id="paint1_linear_429_1410" x1="5.9585" y1="92.9878" x2="5.9585" y2="495" gradientUnits="userSpaceOnUse">
<stop stop-color="#3A96FD"/>
<stop offset="1" stop-color="#2E5BFF" stop-opacity="0.01"/>
</linearGradient>
<clipPath id="clip0_429_1410">
<rect width="1920" height="400" fill="white" transform="translate(0 232)"/>
</clipPath>
<clipPath id="clip1_429_1410">
<rect width="1917" height="407" fill="white" transform="translate(1 88)"/>
</clipPath>
</defs>
</svg>
