<svg width="29" height="19" viewBox="0 0 29 19" fill="none" xmlns="http://www.w3.org/2000/svg">
<path fill-rule="evenodd" clip-rule="evenodd" d="M15.3017 2.6001C13.0306 2.6001 11.097 4.08108 10.3874 6.14877L10.034 7.17827L9.05665 6.73113C8.43792 6.44808 7.75106 6.2901 7.0253 6.2901C4.28582 6.2901 2.06504 8.54994 2.06504 11.3376V11.9526C2.06504 14.7403 4.28583 17.0001 7.0253 17.0001H22.7389C24.9221 17.0001 26.6919 15.1992 26.6919 12.9776C26.6919 10.756 24.9221 8.9551 22.7389 8.9551H20.5054V7.89538C20.5054 4.97087 18.1756 2.6001 15.3017 2.6001ZM8.92489 4.55876C10.1147 2.20873 12.5226 0.600098 15.3017 0.600098C18.948 0.600098 21.9585 3.37016 22.4119 6.9551H22.7389C26.0076 6.9551 28.6573 9.65146 28.6573 12.9776C28.6573 16.3037 26.0076 19.0001 22.7389 19.0001H7.0253C3.20035 19.0001 0.0996094 15.8448 0.0996094 11.9526V11.3376C0.0996094 7.44536 3.20035 4.2901 7.0253 4.2901C7.68311 4.2901 8.32056 4.38369 8.92489 4.55876Z" fill="white"/>
</svg>
